<svg xmlns="http://www.w3.org/2000/svg" width="40" height="40" viewBox="0 0 40 40" fill="transparent">
  <circle cx="20" cy="20" r="19.5" stroke="#3071A0"/>
  <path d="M21.3108 14.1697L21.3645 13.8409L21.4747 13.6005L22.4614 12.6448L22.6757 12.7263L22.7869 14.0909L22.7012 14.3427L22.5371 14.6094L22.2714 15.0411L22.7067 15.3009C23.2215 15.608 23.6817 15.9987 24.0794 16.4517L24.4088 16.8267L24.7844 16.498L24.991 16.3172L25.231 16.2022L26.6047 16.1028L26.7179 16.3014L25.9209 17.4197L25.6929 17.5615L25.4827 17.6316L24.9956 17.794L25.1709 18.2766C25.3724 18.8318 25.4851 19.4286 25.504 20.0569L25.5187 20.5418H26.0038H26.1831L26.4406 20.6074L27.5586 21.4211L27.5156 21.6465L26.1945 21.9922L25.915 21.95L25.7979 21.909L25.3327 21.7462L25.1633 22.209C24.95 22.7916 24.6367 23.3276 24.2502 23.8109L23.9464 24.1907L24.3177 24.5049L24.3779 24.5559L24.5353 24.7691L24.8758 26.1001L24.6986 26.2453L23.4539 25.6508L23.2672 25.4427L23.2498 25.4149L22.9967 25.01L22.5805 25.2442C22.0427 25.547 21.4503 25.7656 20.8229 25.882L20.3514 25.9695L20.4192 26.4443L20.4202 26.4515L20.4045 26.7294L19.8053 27.9649L19.5689 27.9605L18.9984 26.7078L18.9894 26.4697L19.1549 25.9732L18.6033 25.8597C17.981 25.7316 17.3944 25.4987 16.8606 25.1845L16.441 24.9375L16.1829 25.3504L16.1692 25.3724L15.9813 25.5707L14.7229 26.1348L14.5451 25.9831L14.917 24.6567L15.0751 24.4492L15.1163 24.4183L15.5202 24.1154L15.2133 23.7145C14.8353 23.2205 14.5305 22.6734 14.3298 22.0829L14.167 21.604L13.69 21.7723L13.6021 21.8033L13.3291 21.8394L12.009 21.4631L11.9723 21.2347L13.1006 20.4599L13.3704 20.3988L13.5146 20.4043L14.007 20.4232L14.0331 19.9312C14.0661 19.3094 14.2072 18.7123 14.4269 18.1511L14.617 17.6655L14.1238 17.496L13.9231 17.427L13.6974 17.2816L12.9312 16.1446L13.0516 15.9411L14.4206 16.0773L14.6535 16.1989L14.8589 16.3778L15.2249 16.6966L15.5544 16.3402C15.962 15.8994 16.4341 15.5209 16.957 15.2265L17.3981 14.9783L17.1445 14.5403L16.9971 14.2857L16.9205 14.0254L17.057 12.655L17.2723 12.5783L18.238 13.5625L18.3414 13.8158L18.3967 14.1407L18.4783 14.6201L18.9598 14.5519C19.2197 14.515 19.4859 14.5004 19.7688 14.5004C20.0973 14.5004 20.4194 14.5288 20.7339 14.5821L21.2298 14.666L21.3108 14.1697ZM23.1231 20.2354C23.1231 18.3833 21.6208 16.881 19.7688 16.881C17.9168 16.881 16.4144 18.3833 16.4144 20.2354C16.4144 22.0874 17.9168 23.5897 19.7688 23.5897C21.6208 23.5897 23.1231 22.0874 23.1231 20.2354Z" stroke="#3071A0"/>
</svg>