<svg
	width="40"
	height="40"
	viewBox="0 0 40 40"
	fill="none"
	xmlns="http://www.w3.org/2000/svg">
	<circle cx="20" cy="20" r="19.5" stroke="#3071A0" />
	<path
		d="M27.7314 14.5538C27.6446 14.4998 27.546 14.4714 27.4457 14.4714C27.3454 14.4714 27.2469 14.4998 27.16 14.5538L22.2857 17.1569V15.0769C22.2854 14.972 22.2602 14.8689 22.2125 14.7775C22.1648 14.686 22.0962 14.6092 22.0132 14.5543C21.9302 14.4994 21.8355 14.4683 21.7382 14.4639C21.6409 14.4595 21.5441 14.482 21.4571 14.5292L16.5714 17.1569V12.6154C16.5714 12.4522 16.5112 12.2956 16.4041 12.1802C16.2969 12.0648 16.1516 12 16 12H12.5714C12.4199 12 12.2745 12.0648 12.1674 12.1802C12.0602 12.2956 12 12.4522 12 12.6154V28H28V15.0769C28.0002 14.9723 27.9756 14.8694 27.9286 14.7779C27.8817 14.6864 27.8138 14.6093 27.7314 14.5538ZM23.4286 26.7692H21.1429V22.4615H23.4286V26.7692ZM26.8571 26.7692H24.5714V21.8462C24.5714 21.6829 24.5112 21.5264 24.4041 21.411C24.2969 21.2956 24.1516 21.2308 24 21.2308H20.5714C20.4199 21.2308 20.2745 21.2956 20.1674 21.411C20.0602 21.5264 20 21.6829 20 21.8462V26.7692H13.1429V13.2308H15.4286V19.1508L21.1429 16.0738V19.1508L26.8571 16.0738V26.7692Z"
		fill="#3071A0" />
</svg>
