<svg width="40" height="40" viewBox="0 0 40 40" fill="none" xmlns="http://www.w3.org/2000/svg">
<circle cx="20" cy="20" r="19.5" stroke="#3071A0"/>
<path d="M11.949 20.385C12.1506 18.4892 12.9634 16.7837 14.1792 15.4841L15.5546 16.9078L16.191 16.249L14.8407 14.8512C16.1339 13.7446 17.7649 13.0455 19.55 12.9444V15.2608H20.45V12.9444C22.2351 13.0455 23.8662 13.7446 25.1594 14.8513L23.8636 16.1924L24.5 16.8513L25.8208 15.4841C27.0366 16.7837 27.8494 18.4892 28.051 20.385H26.1579V21.3167H28.1C28.0989 23.3385 27.4061 25.1924 26.2523 26.6397L24.7131 25.0464L24.0767 25.7052L25.6415 27.325L25.6358 27.3307L26.2618 28C27.9498 26.308 29 23.9363 29 21.3116C29 16.1687 24.9703 12 20 12C15.0297 12 11 16.1687 11 21.3116C11 23.8667 11.9952 26.1821 13.6054 27.8641L14.2446 27.2083C14.2418 27.2053 14.239 27.2024 14.2362 27.1994L15.5885 25.7995L14.9521 25.1407L13.6389 26.5002C12.5505 25.0742 11.9011 23.2742 11.9 21.3167H13.7237V20.385H11.949Z" fill="#3071A0"/>
<path fill-rule="evenodd" clip-rule="evenodd" d="M25.1667 22.5377L18.8835 23.1377C18.7097 23.1723 18.5541 23.2713 18.4459 23.4162L17.7086 24.5478C17.6265 25.1134 17.6847 25.3384 18.0077 25.7034L19.1928 26.3017C19.3565 26.3712 19.5391 26.3764 19.7062 26.3164L25.4283 23.5809C26.2794 23.2752 26.0515 22.3618 25.1667 22.5377ZM19.468 25.4041L23.0923 23.6714L19.1179 24.051L18.577 24.8812C18.5747 24.919 18.575 24.9415 18.5756 24.9533L19.468 25.4041ZM18.5688 24.9413C18.5689 24.9413 18.5697 24.9426 18.5707 24.9451C18.5692 24.9425 18.5687 24.9412 18.5688 24.9413ZM25.177 22.6812L25.1782 22.6803C25.1782 22.6803 25.1778 22.6807 25.177 22.6812Z" fill="#3071A0"/>
</svg>
