<svg width="14" height="12" viewBox="0 0 14 12" fill="none" xmlns="http://www.w3.org/2000/svg">
<path d="M7.18898 0.0231055C3.71797 2.48219 0.880362 7.66376 0.0053353 10.8976C-0.0337009 11.0418 0.151917 11.1052 0.222578 10.9736C3.33545 5.17654 9.45296 2.21236 13.7812 0.245329C13.9067 0.18827 13.8653 0 13.7275 0H7.26224C7.23598 0 7.21042 0.00791095 7.18898 0.0231055Z" fill="white"/>
<path d="M5.38349 0.2235C3.79992 1.70621 3.47095 2.05563 2.24217 3.78658C2.183 3.86994 2.05493 3.85426 2.01812 3.7588L0.636128 0.174805C0.603673 0.0906367 0.665079 0 0.754984 0H5.29672C5.41292 0 5.46847 0.143937 5.38349 0.2235Z" fill="white"/>
<path d="M8.71529 4.27379C7.92153 4.55745 6.69927 5.38518 5.99736 5.99496C5.93548 6.04872 5.94249 6.14631 6.00938 6.19363C7.96461 7.57684 8.98381 8.2623 10.6523 10.9854C10.7262 11.106 10.9137 11.0373 10.8905 10.8977C10.4181 8.05523 9.90877 6.61413 8.86815 4.34124C8.8414 4.28281 8.77564 4.25222 8.71529 4.27379Z" fill="white"/>
</svg>
