<svg width="10" height="14" viewBox="0 0 10 14" fill="none" xmlns="http://www.w3.org/2000/svg">
<path d="M1.00147 0C0.803869 0 0.660156 0.139825 0.660156 0.332085V13.6679C0.660156 13.8602 0.803869 14 1.00147 14H9.31884C9.51644 14 9.66016 13.8602 9.66016 13.6679V0.332085C9.66016 0.139825 9.51644 0 9.31884 0L1.00147 0ZM2.45656 1.74782H7.84578V10.4869H2.45656V1.74782ZM5.15117 11.3608C5.65417 11.3608 6.04938 11.7453 6.04938 12.2347C6.04938 12.7241 5.65417 13.1086 5.15117 13.1086C4.64818 13.1086 4.25297 12.7241 4.25297 12.2347C4.25297 11.7453 4.64818 11.3608 5.15117 11.3608Z" fill="#1D1D1D"/>
</svg>
